<?xml version="1.0" standalone="no"?><!DOCTYPE svg PUBLIC "-//W3C//DTD SVG 1.1//EN" "http://www.w3.org/Graphics/SVG/1.1/DTD/svg11.dtd"><svg class="icon" width="200px" height="200.00px" viewBox="0 0 1024 1024" version="1.1" xmlns="http://www.w3.org/2000/svg"><path fill="#333333" d="M517.090 10.542c-279.761 0-506.551 226.788-506.551 506.551s226.791 506.553 506.551 506.553 506.551-226.788 506.551-506.551-226.787-506.553-506.551-506.553zM517.090 983.118c-257.398 0-466.027-208.625-466.027-466.027s208.626-466.027 466.027-466.027 466.027 208.625 466.027 466.027-208.625 466.027-466.027 466.027zM669.708 740.406v-171.721c0-3.184 2.607-5.79 5.79-5.79h75.91c14.33 0 27.135-8.538 32.637-21.782 5.428-13.1 2.387-28.077-7.597-38.209l-234.031-234.029c-6.803-6.803-16.281-10.564-25.979-10.275-8.611-0.289-18.092 3.692-24.531 10.133l-234.099 234.099c-10.133 10.133-13.1 25.184-7.597 38.427 5.5 13.17 18.235 21.637 32.564 21.637h75.91c3.184 0 5.861 2.606 5.861 5.79v171.721c0 19.466 15.775 35.169 35.169 35.169h234.821c19.393 0 35.17-15.775 35.17-35.169zM413.971 731.941c-3.184 0-5.79-2.606-5.79-5.861 0 0 0-199.652 0-206.889-7.237 0-21.852 0-21.852 0h-69.106c-2.387 0-4.486-1.445-5.356-3.546-0.941-2.17-0.361-4.635 1.23-6.367l199.87-199.87c2.243-2.243 5.936-2.243 8.249 0l199.87 199.87c1.663 1.663 2.17 4.198 1.23 6.367-0.869 2.17-3.040 3.546-5.356 3.546 0 0-83.727 0-90.963 0 0 7.237 0 206.889 0 206.889 0 3.184-2.607 5.861-5.861 5.861h-206.164z" /></svg>