<?xml version="1.0" standalone="no"?><!DOCTYPE svg PUBLIC "-//W3C//DTD SVG 1.1//EN" "http://www.w3.org/Graphics/SVG/1.1/DTD/svg11.dtd"><svg class="icon" width="200px" height="200.00px" viewBox="0 0 1024 1024" version="1.1" xmlns="http://www.w3.org/2000/svg"><path fill="#333333" d="M571.772 768.003h18.877v3.256h-18.877v-3.256z"  /><path fill="#333333" d="M654.827 747.853h4.673v15.1h-4.673v-15.1z"  /><path fill="#333333" d="M438.037 755.545h-14.558c-0.047 0.064-0.094 0.118-0.141 0.165 1.824 2.345 4.13 4.271 6.914 5.781 3.255-1.746 5.851-3.728 7.785-5.946z"  /><path fill="#333333" d="M447.098 748.041h-34.543v35.346h34.543v-35.346zM439.972 781.829c-6.953-1.54-14.424-2.862-22.416-3.963l0.991-3.257c7.865 1.038 15.431 2.25 22.698 3.633l-1.274 3.587zM422.511 771.589l0.944-3.161c4.624 0.692 9.485 1.478 14.581 2.359l-0.991 3.302c-5.159-1.037-10.004-1.87-14.534-2.5zM444.502 769.136c-5.584-1.274-10.303-2.714-14.156-4.318-3.855 1.731-8.966 3.421-15.337 5.073-0.441-1.038-0.976-2.046-1.605-3.020 5.521-1.133 10.083-2.43 13.685-3.893-2.218-1.526-4.129-3.28-5.734-5.261-1.494 1.432-3.123 2.831-4.884 4.199-0.629-0.66-1.4-1.432-2.312-2.312 4.31-3.115 7.85-6.779 10.617-10.995l3.115 1.463c-0.582 0.865-1.211 1.716-1.888 2.548h16.705v2.784c-2.312 2.8-5.261 5.325-8.848 7.575 3.319 1.117 7.385 1.988 12.198 2.618-0.723 1.417-1.241 2.596-1.556 3.54z"  /><path fill="#333333" d="M669.55 747.758h4.719v15.195h-4.719v-15.195z"  /><path fill="#333333" d="M571.772 774.185h18.877v3.256h-18.877v-3.256z"  /><path fill="#333333" d="M826.508 610.518c-47.788 0-88.773-29.041-105.513-70.041-16.552 41-57.101 70.041-104.38 70.041-47.28 0-87.836-29.041-104.388-70.041-16.736 41-57.723 70.041-105.507 70.041-47.281 0-87.836-29.041-104.392-70.041-16.732 41-57.718 70.041-105.503 70.041-11.259 0-22.12-1.691-32.385-4.752v232.194c0 21.586 23.99 47.971 45.577 47.971h603.301c21.585 0 45.575-26.385 45.575-47.971v-232.108c-10.273 3-21.127 4.666-32.385 4.666zM857.095 243.004h-693.255l-71.964 188.308c0 56.374 46.778 103.146 104.349 103.146 57.568 0 105.545-45.575 105.545-103.146 0 56.374 46.778 103.146 104.35 103.146s105.545-45.575 105.545-103.146c0 56.374 46.778 103.146 104.349 103.146 57.574 0 104.346-45.575 104.346-103.146 0 56.374 46.778 103.146 105.549 103.146 57.572 0 105.548-45.575 105.548-103.146l-74.363-188.308zM823.506 241.805v0 0zM211.813 211.046h599.699c20.395 0 35.986-15.592 35.986-35.984 0-20.389-15.591-35.981-35.986-35.981h-599.699c-20.388 0-35.979 15.593-35.979 35.98 0 20.393 15.592 35.985 35.979 35.985v0z"  /></svg>