<?xml version="1.0" standalone="no"?><!DOCTYPE svg PUBLIC "-//W3C//DTD SVG 1.1//EN" "http://www.w3.org/Graphics/SVG/1.1/DTD/svg11.dtd"><svg class="icon" width="200px" height="200.00px" viewBox="0 0 1024 1024" version="1.1" xmlns="http://www.w3.org/2000/svg"><path fill="#333333" d="M990.0167144401646 469.37896715588477L179.67303911769557 469.37896715588477 386.60032149596714 270.1761083417285c5.2969053972016455-5.298286238024691 5.2969053972016455-13.885735316543212-1.226433020069766e-15-19.185402395390945l-41.563308773662555-41.56468961448557a13.569522768065841 13.569522768065841 0 0 0-19.186783236213994 2.452866040139532e-15l-260.4900979041975 250.77312103242807c-0.299642458600823 0.25269387061728393-0.5965232355555555 0.5136727861728396-0.8795956042798351 0.7953643140740742l-1.391887549629629 1.3918875496296295-40.174182905679004 38.67320893102882a13.530859225020574 13.530859225020574 0 0 0-3.9381580273251022 10.328689356378598 13.523955020905348 13.523955020905348 0 0 0 3.9353963456790124 10.35354449119341l41.56607045530863 40.065096480658426c0.26926396049382717 0.26374059720164605 0.5495746475720167 0.5109111045267489 0.8312661754732512 0.7511774077366253l260.53980817382705 250.81592709794225a13.56676108641975 13.56676108641975 0 0 0 19.186783236213994-2.452866040139532e-15l41.56607045530863-41.56607045530863c5.2969053972016455-5.296905397201646 5.2969053972016455-13.885735316543212-2.452866040139532e-15-19.186783236213994L181.61450131489715 555.287978961646l808.3994514436214-1.5698342656893005e-13c7.492442305843622-1.226433020069766e-15 13.565380245596701-6.072937939753088 13.565380245596701-13.563999404773664l-9.811464160558128e-15-58.783774677860066c-1.226433020069766e-15-7.489680624197532-6.072937939753088-13.565380245596701-13.565380245596712-13.5653802455967l0.0027616816460905363 0.004142522469135802z"  /></svg>