<?xml version="1.0" standalone="no"?><!DOCTYPE svg PUBLIC "-//W3C//DTD SVG 1.1//EN" "http://www.w3.org/Graphics/SVG/1.1/DTD/svg11.dtd"><svg class="icon" width="200px" height="200.00px" viewBox="0 0 1024 1024" version="1.1" xmlns="http://www.w3.org/2000/svg"><path fill="#333333" d="M736.256 34.816c-88.064 0-169.984 44.544-224.256 117.248C458.24 78.848 376.32 34.816 287.744 34.816 129.024 34.816 0 175.616 0 349.184c0 103.424 46.08 176.128 83.456 234.496 108.032 169.984 379.904 380.416 391.68 389.12 21.504 17.408 52.224 17.408 73.728 0 11.776-8.704 283.136-220.16 391.68-389.12C977.92 525.312 1024 452.608 1024 349.184c0-173.568-129.024-314.368-287.744-314.368z m130.048 547.328c-99.84 140.288-311.296 300.032-321.536 307.712-9.728 7.68-21.504 11.776-32.768 11.776-11.776 0-22.528-3.584-32.768-11.776-10.752-7.68-217.6-169.472-321.536-313.344-33.28-52.736-86.528-117.76-86.528-209.92C71.168 211.456 157.696 102.4 299.52 102.4c78.848 0 164.352 75.264 212.48 140.8 48.64-65.536 133.632-140.8 212.48-140.8 142.336 0 234.496 109.056 234.496 264.192 0 91.648-58.88 163.328-92.672 215.552z" /></svg>