<?xml version="1.0" standalone="no"?><!DOCTYPE svg PUBLIC "-//W3C//DTD SVG 1.1//EN" "http://www.w3.org/Graphics/SVG/1.1/DTD/svg11.dtd"><svg class="icon" width="200px" height="200.00px" viewBox="0 0 1024 1024" version="1.1" xmlns="http://www.w3.org/2000/svg"><path fill="#333333" d="M512 0C231.722436 0 0 231.722436 0 512S231.722436 1024 512 1024 1024 792.277564 1024 512 792.277564 0 512 0L512 0zM512 215.537394c75.398612 0 134.743768 59.345155 134.743768 134.743768 0 75.398612-59.345155 134.743768-134.743768 134.743768-75.398612 0-134.743768-59.345155-134.743768-134.743768C377.256232 274.882549 436.601388 215.537394 512 215.537394L512 215.537394zM743.722436 722.273966c-21.580057 43.160113-129.348754 80.793626-231.722436 86.18864-107.768697-5.395014-215.537394-43.160113-237.117451-86.18864C226.327422 630.558725 388.046261 538.975071 512 538.975071 635.953739 538.975071 792.277564 630.558725 743.722436 722.273966L743.722436 722.273966zM743.722436 722.273966"  /></svg>