<?xml version="1.0" standalone="no"?><!DOCTYPE svg PUBLIC "-//W3C//DTD SVG 1.1//EN" "http://www.w3.org/Graphics/SVG/1.1/DTD/svg11.dtd"><svg class="icon" width="200px" height="200.00px" viewBox="0 0 1024 1024" version="1.1" xmlns="http://www.w3.org/2000/svg"><path fill="#333333" d="M931.38455555 743.765L280.63255554 743.765c-19.2853 0-37.376-7.50932999-50.85869999-21.16270001-13.4827-13.6533-20.992-31.5733-20.8213-50.85869999l2.38933-479.23200001c0-19.11470001-6.65599999-31.9147-39.76529999-37.20529999l-0.17066601 0-95.5733-16.384c-9.21600001-1.536-15.5307-10.4107-13.9947-19.6267 1.536-9.21600001 10.4107-15.5307 19.62669999-13.9947l95.40270001 16.38400001c45.3973 7.16800001 68.43729999 31.0613 68.43729999 70.9973L242.91555554 672.085c0 10.0693 3.75467001 19.45600001 10.92270001 26.4533 7.16800001 7.16800001 16.5547 11.0933 26.624 11.0933l650.752 0c9.38667001 0 17.0667 7.68 17.0667 17.06669999s-7.50932999 17.0667-16.89599999 17.06670001Z"  /><path fill="#333333" d="M882.74455555 645.803l-602.624-1.87732998c-18.944-0.170667-36.6933-7.50932999-50.0053-20.99200003-13.31200001-13.48270001-20.48-31.232-20.48-50.176l1.87733001-353.96299998L893.32655555 269.653c30.8907 1.19467001 55.1253 26.2827 55.1253 57.1733L948.45185555 580.267c0 36.1813-29.5253 65.536-65.70670001 65.536ZM280.46255556 609.792l602.45299999 1.87732999c17.40800002 0 31.5733-14.1653 31.5733-31.4027L914.48885555 326.827c0-12.4587-9.89866998-22.6987-22.35729999-23.04l-0.68266701 0-645.632-48.128-1.536 317.44c0 9.72799999 3.75467001 18.944 10.5813 25.9413 6.48532999 6.82667001 15.7013 10.752 25.6 10.752Z"  /><path fill="#333333" d="M346.85155555 800.085m-63.6587 0a63.6587 63.6587 0 1 0 127.317 0 63.6587 63.6587 0 1 0-127.317 0Z"  /><path fill="#333333" d="M346.85155555 880.811c-44.544 0-80.7253-36.1813-80.7253-80.7253s36.1813-80.7253 80.7253-80.7253c44.544 0 80.7253 36.1813 80.7253 80.7253s-36.1813 80.7253-80.7253 80.7253Zm0-127.317c-25.7707 0-46.592 20.8213-46.59199998 46.592s20.8213 46.592 46.59199999 46.59199999 46.592-20.8213 46.59199999-46.59199999-20.8213-46.592-46.592-46.592Z"  /><path fill="#333333" d="M835.47055555 800.085m-63.6587 0a63.6587 63.6587 0 1 0 127.317 0 63.6587 63.6587 0 1 0-127.317 0Z"  /><path fill="#333333" d="M835.47055555 880.811c-44.544 0-80.7253-36.1813-80.7253-80.7253s36.1813-80.7253 80.7253-80.7253 80.7253 36.1813 80.72530001 80.7253-36.1813 80.7253-80.72530001 80.7253Zm0-127.317c-25.7707 0-46.592 20.8213-46.59199999 46.592s20.8213 46.592 46.59199999 46.59199999 46.592-20.8213 46.592-46.59199999-20.8213-46.592-46.592-46.592Z"  /><path fill="#333333" d="M733.07055555 417.963L385.25155555 417.963c-9.38667001 0-17.0667-7.68-17.0667-17.0667s7.68-17.0667 17.0667-17.06669998l347.819 0c9.38667001 0 17.0667 7.68 17.0667 17.06669998s-7.68 17.0667-17.0667 17.0667ZM733.07055555 516.096L385.25155555 516.096c-9.38667001 0-17.0667-7.68-17.0667-17.0667s7.68-17.0667 17.0667-17.0667l347.819 0c9.38667001 0 17.0667 7.68 17.0667 17.0667s-7.68 17.0667-17.0667 17.0667Z"  /></svg>