<?xml version="1.0" standalone="no"?><!DOCTYPE svg PUBLIC "-//W3C//DTD SVG 1.1//EN" "http://www.w3.org/Graphics/SVG/1.1/DTD/svg11.dtd"><svg class="icon" width="200px" height="200.00px" viewBox="0 0 1024 1024" version="1.1" xmlns="http://www.w3.org/2000/svg"><path fill="#333333" d="M787.62786 263.583329l0.247049-0.100252-42.234629 0-4.618741 0-110.130126 0-48.758154 0-136.743385 0-48.758154 0L281.882853 263.483077 239.451301 263.483077c0 0-27.168224-0.880783-27.168224 28.697063l0 192.125315c0 23.408783 8.940308 44.576224 23.201119 60.913678l0 206.41835c0 25.675189 20.791497 46.491748 46.398657 46.491748l463.757427 0c25.660867 0 46.405818-20.816559 46.405818-46.491748l0-206.41835c14.257231-16.337455 23.197538-37.504895 23.197538-60.913678L815.243636 299.222825c-0.304336-1.582545-0.454713-3.723636-0.454713-6.942434C814.792503 262.727608 787.62786 263.583329 787.62786 263.583329L787.62786 263.583329zM444.194014 309.971245l139.149427 0 0 151.072224c0 38.536056-31.135329 69.746573-69.553231 69.746573-38.417902 0-69.596196-31.214098-69.596196-69.746573L444.194014 309.971245 444.194014 309.971245zM258.631608 461.047049 258.631608 309.971245l69.606937 0 69.596196 0 0 151.072224c0 38.536056-31.185455 69.746573-69.596196 69.746573C289.820643 530.793622 258.631608 499.579524 258.631608 461.047049L258.631608 461.047049zM745.64386 705.120671c0 25.675189-20.73779 46.513231-46.348531 46.513231L328.242126 751.633902c-25.614322 0-46.355692-20.838042-46.355692-46.513231l0-131.136448c7.429371 1.937007 15.120112 3.297566 23.154573 3.297566l46.402238 0c27.866406 0 52.574881-12.585175 69.596196-32.066238 16.974769 19.481063 41.683245 32.066238 69.553231 32.066238l46.352112 0c27.862825 0 52.574881-12.585175 69.599776-32.066238 17.021315 19.481063 41.676084 32.066238 69.54607 32.066238l46.402238 0c8.038042 0 15.718042-1.360559 23.150993-3.297566L745.64386 705.120671 745.64386 705.120671zM768.844979 461.047049c0 38.536056-31.135329 69.746573-69.553231 69.746573-38.417902 0-69.553231-31.214098-69.553231-69.746573L629.738517 309.971245l69.553231 0 69.553231 0L768.844979 461.047049 768.844979 461.047049zM513.79021 0C232.02193 0 3.58042 228.94993 3.58042 511.437874c0 282.437818 228.44151 511.437874 510.20979 511.437874 281.721734 0 510.20979-229.000056 510.20979-511.437874C1024 228.94993 795.511944 0 513.79021 0L513.79021 0zM513.79021 978.295944c-257.263888 0-465.769622-209.014154-465.769622-466.86165 0-257.868979 208.505734-466.883133 465.769622-466.883133 257.217343 0 465.715916 209.014154 465.715916 466.883133C979.506126 769.28179 771.007552 978.295944 513.79021 978.295944L513.79021 978.295944zM513.79021 978.295944" /></svg>