<?xml version="1.0" standalone="no"?><!DOCTYPE svg PUBLIC "-//W3C//DTD SVG 1.1//EN" "http://www.w3.org/Graphics/SVG/1.1/DTD/svg11.dtd"><svg class="icon" width="200px" height="200.00px" viewBox="0 0 1024 1024" version="1.1" xmlns="http://www.w3.org/2000/svg"><path fill="#333333" d="M722.824533 887.466667H301.175467C276.206933 887.466667 256 870.058667 256 848.622933V175.377067C256 153.924267 276.206933 136.533333 301.175467 136.533333h421.649066C747.793067 136.533333 768 153.941333 768 175.377067v673.245866C768 870.075733 747.793067 887.466667 722.824533 887.466667zM512 848.622933c16.622933 0 30.122667-11.605333 30.122667-25.890133 0-14.2848-13.499733-25.9072-30.122667-25.9072-16.622933 0-30.122667 11.605333-30.122667 25.9072 0 14.2848 13.499733 25.890133 30.122667 25.890133z m210.824533-634.4192H301.175467v543.778134H722.824533V214.203733z"  /></svg>