<?xml version="1.0" standalone="no"?><!DOCTYPE svg PUBLIC "-//W3C//DTD SVG 1.1//EN" "http://www.w3.org/Graphics/SVG/1.1/DTD/svg11.dtd"><svg class="icon" width="200px" height="200.00px" viewBox="0 0 1024 1024" version="1.1" xmlns="http://www.w3.org/2000/svg"><path fill="#333333" d="M856.7 643.2l-84.4-56.6 83.2-52.9c6.7-4.3 10.9-11.7 11.1-19.7 0.2-8-3.6-15.6-10.2-20.1l-72.7-51.3 64.5-42.1c6.8-4.5 10.9-12 10.9-20.1s-4.1-15.6-10.9-20.1L520.9 146.4c-7.9-5.1-18.1-5.2-26-0.1l-328 209c-6.8 4.4-11 11.9-11.1 20-0.1 8.1 3.9 15.7 10.7 20.2l68.6 45.8-67.7 45.1c-6.7 4.5-10.7 12-10.7 20.1 0 8.1 4.2 15.6 11 20l85 54.9c-3.9 2.5-7.8 5-12.5 8-22 14.1-50.8 32.5-72.1 46.6-6.7 4.5-10.7 12-10.7 20.1 0 8.1 4.2 15.6 11 20l333.8 215.8c4 2.6 8.5 3.8 13 3.8s8.9-1.3 12.9-3.7l328.1-208.6c6.8-4.4 11-11.9 11.1-20 0.1-8.1-3.9-15.7-10.6-20.2zM278.3 470l216.1 144c4 2.7 8.7 4 13.3 4 4.5 0 9.1-1.3 13.1-3.9l219.7-143.5 59 41.6-285 181.1-290.1-187.4 53.9-35.9z m237 373.2L225.4 655.7c14-9 28.3-18.2 40.6-26 13.9-8.9 25.1-16 30.1-19.4 0.3-0.2 0.4-0.4 0.6-0.6l204.8 132.4c4 2.6 8.5 3.8 13 3.8s8.9-1.3 12.9-3.7l200.8-127.6 71.4 47.9-284.3 180.7z" /></svg>