<?xml version="1.0" standalone="no"?><!DOCTYPE svg PUBLIC "-//W3C//DTD SVG 1.1//EN" "http://www.w3.org/Graphics/SVG/1.1/DTD/svg11.dtd"><svg class="icon" width="200px" height="200.00px" viewBox="0 0 1024 1024" version="1.1" xmlns="http://www.w3.org/2000/svg"><path fill="#333333" d="M144 854.4c-13.1 0-23.8-10.6-23.8-23.8V217.9c0-13.1 10.6-23.8 23.8-23.8h735.4c13.1 0 23.8 10.6 23.8 23.8v601.7c0.1 9.1-3.4 17.8-9.9 24.5-6.7 6.7-15.4 10.3-24.7 10.3H144zM856.8 808V240.5H166.6V808h690.2z"  /><path fill="#333333" d="M511.7 548.7c-5.4 0-10.7-1.9-14.8-5.4L132.6 238.4l32.9-32.9 346.3 289.8 347.7-291.2 32.9 32.9-365.8 306.2c-4.2 3.5-9.5 5.5-14.9 5.5z"  /></svg>