<?xml version="1.0" standalone="no"?><!DOCTYPE svg PUBLIC "-//W3C//DTD SVG 1.1//EN" "http://www.w3.org/Graphics/SVG/1.1/DTD/svg11.dtd"><svg class="icon" width="200px" height="200.00px" viewBox="0 0 1024 1024" version="1.1" xmlns="http://www.w3.org/2000/svg"><path d="M847.872 698.368H360.448c-83.968 0-152.576-68.608-152.576-152.576V301.056h740.352c29.696 0 53.248 23.552 53.248 53.248v190.464c0 84.992-68.608 153.6-153.6 153.6z m-583.68-340.992v187.392c0 53.248 43.008 96.256 96.256 96.256h487.424c53.248 0 96.256-43.008 96.256-96.256V357.376H264.192z" fill="#4C4C4C" /><path d="M235.52 584.704c-15.36 0-28.672-12.288-28.672-28.672V352.256c0-90.112-73.728-163.84-163.84-163.84-15.36 0-28.672-12.288-28.672-28.672s12.288-28.672 28.672-28.672c121.856 0 221.184 99.328 221.184 221.184v203.776c0 16.384-12.288 28.672-28.672 28.672zM320.512 953.344c-62.464 0-113.664-51.2-113.664-113.664s51.2-113.664 113.664-113.664 113.664 51.2 113.664 113.664-51.2 113.664-113.664 113.664z m0-169.984c-31.744 0-56.32 25.6-56.32 56.32s25.6 56.32 56.32 56.32c31.744 0 56.32-25.6 56.32-56.32s-24.576-56.32-56.32-56.32zM859.136 953.344c-62.464 0-113.664-51.2-113.664-113.664s51.2-113.664 113.664-113.664S972.8 777.216 972.8 839.68s-51.2 113.664-113.664 113.664z m0-169.984c-31.744 0-56.32 25.6-56.32 56.32s25.6 56.32 56.32 56.32 56.32-25.6 56.32-56.32-24.576-56.32-56.32-56.32z" fill="#4C4C4C" /><path d="M661.504 599.04H349.184c-23.552 0-43.008-19.456-43.008-43.008s19.456-43.008 43.008-43.008h311.296c23.552 0 43.008 19.456 43.008 43.008s-19.456 43.008-41.984 43.008z" fill="#FFA028" /></svg>