<?xml version="1.0" standalone="no"?><!DOCTYPE svg PUBLIC "-//W3C//DTD SVG 1.1//EN" "http://www.w3.org/Graphics/SVG/1.1/DTD/svg11.dtd"><svg class="icon" width="200px" height="200.00px" viewBox="0 0 1024 1024" version="1.1" xmlns="http://www.w3.org/2000/svg"><path d="M330.24 671.232h374.784" fill="#EA5F5F" /><path d="M315.904 302.592h640l-226.304 334.848H315.904V302.592z" fill="#17E6A1" /><path d="M482.304 520.704H427.008c-8.192 0-16.384 0.512-25.6 1.024l12.288-13.824 65.024-75.776v-13.312H380.416V435.2h49.152c6.656 0 14.336 0 23.04-0.512l-76.288 87.04v16.384h105.984v-17.408zM672.256 409.6h-62.464c-9.216 0-18.432 0.512-28.672 1.024l14.336-15.36 73.216-84.992v-14.848H558.08v18.432h55.296c7.68 0 15.872-0.512 25.6-0.512L552.96 411.136v18.432h119.808V409.6z m166.4-105.472c-13.312 0-27.648 0.512-43.008 1.536l20.992-23.04 109.056-126.976V133.12h-164.864v27.648h82.432c11.264 0 24.064-0.512 38.4-1.024l-128.512 146.432v27.648H931.84v-29.184h-93.184z m45.056 100.864c-5.632 1.024-13.824 8.192-17.92 12.288-9.216 8.704-31.232 41.472-31.232 41.472l-108.544 156.672H283.648V302.08c0-12.288-8.704-23.04-20.992-25.6l-156.672-30.208c-14.336-3.072-27.648 6.656-30.72 20.48-2.56 13.824 6.656 27.648 20.48 30.208l135.168 26.112V641.024c0 14.336 11.776 26.112 26.112 26.112h5.12v73.728c-20.992 15.36-34.304 40.448-34.304 68.608 0 46.592 37.376 84.48 82.944 84.48 45.568 0 82.944-37.888 82.944-84.48 0-11.776-2.56-22.528-6.656-32.768h214.528c-4.096 10.24-6.656 20.992-6.656 32.768 0 46.592 37.376 84.48 82.944 84.48 45.568 0 82.944-37.888 82.944-84.48s-37.376-84.48-82.944-84.48H314.88v-57.344h424.96c8.704 0 16.384-4.096 21.504-11.264l144.384-208.896c5.632-7.68 6.144-18.432 1.536-26.624-5.12-8.704-14.336-17.408-23.552-15.872z m-205.312 371.712c16.896 0 30.72 14.848 30.72 32.768 0 17.92-13.824 32.768-30.72 32.768s-30.72-14.848-30.72-32.768c0-17.92 13.824-32.768 30.72-32.768z m-336.384 32.768c0 17.92-13.824 32.768-30.72 32.768s-30.72-14.848-30.72-32.768c0-17.92 13.824-32.768 30.72-32.768s30.72 14.848 30.72 32.768z" fill="#333333" /></svg>