<?xml version="1.0" standalone="no"?><!DOCTYPE svg PUBLIC "-//W3C//DTD SVG 1.1//EN" "http://www.w3.org/Graphics/SVG/1.1/DTD/svg11.dtd"><svg class="icon" width="200px" height="200.00px" viewBox="0 0 1024 1024" version="1.1" xmlns="http://www.w3.org/2000/svg"><path fill="#333333" d="M320 320.213333h490.730667a42.666667 42.666667 0 0 1 41.386666 53.013334l-42.666666 170.666666a42.666667 42.666667 0 0 1-41.386667 32.32H368.213333c-3.157333 0-6.250667-0.341333-9.216-1.002666L365.077333 618.666667H757.333333a32 32 0 0 1 0 64H339.626667c-6.485333 0-12.522667-1.92-17.557334-5.248a31.957333 31.957333 0 0 1-16.704-23.829334L270.250667 403.84A5816.768 5816.768 0 0 0 256 309.333333a26.368 26.368 0 0 0-3.2-9.365333 64.064 64.064 0 0 0-54.186667-43.626667l0.085334-0.576a32 32 0 1 1 14.357333-62.037333A128.042667 128.042667 0 0 1 320 320.213333zM341.333333 853.333333a64 64 0 1 1 0-128 64 64 0 0 1 0 128z m405.333334 0a64 64 0 1 1 0-128 64 64 0 0 1 0 128z"  /></svg>