<?xml version="1.0" standalone="no"?><!DOCTYPE svg PUBLIC "-//W3C//DTD SVG 1.1//EN" "http://www.w3.org/Graphics/SVG/1.1/DTD/svg11.dtd"><svg class="icon" width="200px" height="200.00px" viewBox="0 0 1024 1024" version="1.1" xmlns="http://www.w3.org/2000/svg"><path d="M595.2 535.466667l166.4 51.2c34.133333 10.666667 55.466667 36.266667 55.466667 64v230.4c0 17.066667-19.2 32-42.666667 32H236.8c-23.466667 0-42.666667-14.933333-42.666667-32V650.666667c0-27.733333 21.333333-53.333333 55.466667-64l166.4-51.2" fill="#83C5ED" /><path d="M595.2 401.066667l166.4 70.4c34.133333 14.933333 55.466667 49.066667 55.466667 85.333333v311.466667c0 23.466667-19.2 44.8-42.666667 44.8H236.8c-23.466667 0-42.666667-19.2-42.666667-44.8V556.8c0-38.4 21.333333-72.533333 55.466667-85.333333l166.4-70.4" fill="#24AA7D" /><path d="M776.533333 934.4H236.8c-34.133333 0-64-29.866667-64-66.133333V556.8c0-46.933333 27.733333-87.466667 68.266667-106.666667l166.4-70.4 17.066666 38.4-164.266666 72.533334c-25.6 10.666667-42.666667 36.266667-42.666667 66.133333v311.466667c0 12.8 8.533333 23.466667 21.333333 23.466666h537.6c10.666667 0 21.333333-10.666667 21.333334-23.466666V556.8c0-29.866667-17.066667-55.466667-42.666667-66.133333l-166.4-70.4 17.066667-38.4 166.4 70.4c42.666667 17.066667 68.266667 59.733333 68.266666 106.666666v311.466667c-2.133333 34.133333-29.866667 64-64 64z" fill="#24AA7D" /><path d="M490.666667 622.933333l-110.933334-194.133333c-6.4-12.8 2.133333-25.6 14.933334-25.6H618.666667c12.8 0 21.333333 14.933333 14.933333 25.6l-110.933333 194.133333c-8.533333 10.666667-25.6 10.666667-32 0z" fill="#FCFCFC" /><path d="M505.6 652.8c-14.933333 0-27.733333-6.4-34.133333-19.2l-110.933334-194.133333c-6.4-12.8-6.4-27.733333 0-38.4 6.4-12.8 19.2-19.2 34.133334-19.2H618.666667c14.933333 0 27.733333 6.4 34.133333 19.2 6.4 12.8 6.4 27.733333 0 38.4l-110.933333 194.133333c-8.533333 10.666667-21.333333 19.2-36.266667 19.2z m4.266667-40.533333z m-108.8-189.866667l104.533333 183.466667 104.533333-183.466667h-209.066666z" fill="#FFFFFF" /><path d="M505.6 245.333333m-177.066667 0a177.066667 177.066667 0 1 0 354.133334 0 177.066667 177.066667 0 1 0-354.133334 0Z" fill="#24AA7D" /><path d="M505.6 435.2c-104.533333 0-187.733333-85.333333-187.733333-187.733333s85.333333-187.733333 187.733333-187.733334 187.733333 85.333333 187.733333 187.733334-83.2 187.733333-187.733333 187.733333z m0-356.266667c-91.733333 0-166.4 74.666667-166.4 166.4s74.666667 166.4 166.4 166.4 166.4-74.666667 166.4-166.4-72.533333-166.4-166.4-166.4z" fill="#24AA7D" /><path d="M731.733333 753.066667c-10.666667 0-21.333333-8.533333-21.333333-21.333334l-4.266667-100.266666c0-12.8 8.533333-21.333333 21.333334-21.333334 10.666667-2.133333 21.333333 8.533333 21.333333 21.333334l4.266667 100.266666c0 10.666667-8.533333 21.333333-21.333334 21.333334z" fill="#FCFCFC" /></svg>