<?xml version="1.0" standalone="no"?><!DOCTYPE svg PUBLIC "-//W3C//DTD SVG 1.1//EN" "http://www.w3.org/Graphics/SVG/1.1/DTD/svg11.dtd"><svg class="icon" width="200px" height="200.00px" viewBox="0 0 1024 1024" version="1.1" xmlns="http://www.w3.org/2000/svg"><path fill="#333333" d="M527.701333 179.768889a21.504 21.504 0 0 0-31.402666 0L155.136 536.746667a32.597333 32.597333 0 0 0-7.850667 19.569777v453.12H395.946667v-267.946666c0-62.748444 50.858667-113.607111 113.550222-113.607111h5.006222c62.691556 0 113.550222 50.858667 113.550222 113.607111v267.946666h248.661334V556.259556a32.654222 32.654222 0 0 0-7.850667-19.569778L527.701333 179.768889z m472.120889 309.191111L547.271111 29.468444a49.493333 49.493333 0 0 0-70.656 0L24.177778 488.96a33.223111 33.223111 0 0 0 47.217778 46.648889L512 88.177778l440.604444 447.374222a33.109333 33.109333 0 1 0 47.217778-46.648889z"  /></svg>